<svg width="56" height="55" fill="none" xmlns="http://www.w3.org/2000/svg"><path d="M24.429 31.786v-1.929H27v-5.786h-.04c-.322.503-.623.724-1.105 1.145l-1.547-1.607 2.973-2.752h2.29v9h2.572v1.929h-7.714zm10.285-5.143c0-3.656-2.21-8.357-6.428-8.357-4.219 0-6.429 4.7-6.429 8.357 0 3.656 2.21 8.357 6.429 8.357 4.218 0 6.428-4.7 6.428-8.357zM45 31.786a5.153 5.153 0 00-5.143 5.143H16.714a5.153 5.153 0 00-5.143-5.143V21.5a5.153 5.153 0 005.143-5.143h23.143A5.153 5.153 0 0045 21.5v10.286zm2.571-16.715c0-.703-.582-1.285-1.285-1.285h-36c-.703 0-1.286.582-1.286 1.285v23.143c0 .703.583 1.286 1.286 1.286h36c.703 0 1.285-.583 1.285-1.286V15.071z" fill="#fff"/></svg>