<svg width="56" height="55" fill="none" xmlns="http://www.w3.org/2000/svg"><path d="M38.286 35.214a2.59 2.59 0 01-2.572 2.572 2.59 2.59 0 01-2.571-2.572 2.59 2.59 0 012.571-2.571 2.59 2.59 0 012.572 2.571zM22.857 19.786a2.59 2.59 0 01-2.571 2.571 2.59 2.59 0 01-2.572-2.571 2.59 2.59 0 012.572-2.572 2.59 2.59 0 012.571 2.572zM43.43 35.214a7.716 7.716 0 00-7.715-7.714A7.716 7.716 0 0028 35.214a7.716 7.716 0 007.714 7.715 7.716 7.716 0 007.715-7.715zM41.5 13.357c0-.703-.583-1.286-1.286-1.286H37c-.402 0-.783.201-1.025.523L14.761 40.879c-.16.221-.261.483-.261.764 0 .703.583 1.286 1.286 1.286H19c.402 0 .784-.201 1.025-.523l21.214-28.285c.16-.222.261-.483.261-.764zM28 19.786a7.716 7.716 0 00-7.714-7.715 7.716 7.716 0 00-7.715 7.715 7.716 7.716 0 007.715 7.714A7.716 7.716 0 0028 19.786z" fill="#fff"/></svg>