<svg width="55" height="55" fill="none" xmlns="http://www.w3.org/2000/svg"><path d="M43.429 38.071a.661.661 0 01-.643.643H13.214a.661.661 0 01-.643-.643V22.643c.422.482.884.924 1.387 1.326 2.872 2.21 5.765 4.46 8.558 6.79 1.506 1.266 3.375 2.812 5.464 2.812h.04c2.09 0 3.958-1.546 5.464-2.812 2.793-2.33 5.686-4.58 8.558-6.79.503-.402.965-.844 1.387-1.326V38.07zm0-21.113c0 1.707-1.648 3.937-2.954 4.962a1217.048 1217.048 0 00-8.055 6.368c-1.065.864-2.994 2.712-4.4 2.712h-.04c-1.406 0-3.335-1.848-4.4-2.712a1191.46 1191.46 0 00-8.055-6.368c-1.809-1.427-2.954-3.416-2.954-5.706 0-.341.302-.643.643-.643h29.572c.763 0 .643.884.643 1.387zM46 16.214A3.224 3.224 0 0042.786 13H13.214A3.224 3.224 0 0010 16.214v21.857a3.224 3.224 0 003.214 3.215h29.572A3.224 3.224 0 0046 38.07V16.214z" fill="#fff"/></svg>