<svg width="55" height="55" viewBox="0 0 55 55" fill="none" xmlns="http://www.w3.org/2000/svg">
<path d="M43.4286 38.0714C43.4286 38.4129 43.1272 38.7143 42.7857 38.7143H13.2143C12.8728 38.7143 12.5714 38.4129 12.5714 38.0714V22.6429C12.9933 23.125 13.4554 23.567 13.9576 23.9688C16.8304 26.1786 19.7232 28.4286 22.5156 30.7589C24.0223 32.0246 25.8906 33.5714 27.9799 33.5714H28H28.0201C30.1094 33.5714 31.9777 32.0246 33.4844 30.7589C36.2768 28.4286 39.1696 26.1786 42.0424 23.9688C42.5446 23.567 43.0067 23.125 43.4286 22.6429V38.0714ZM43.4286 16.9576C43.4286 18.6652 41.7813 20.8951 40.4754 21.9196C37.7835 24.029 35.0915 26.1585 32.4196 28.2879C31.3549 29.1518 29.4263 31 28.0201 31H28H27.9799C26.5737 31 24.6451 29.1518 23.5804 28.2879C20.9085 26.1585 18.2165 24.029 15.5246 21.9196C13.7165 20.4933 12.5714 18.5045 12.5714 16.2143C12.5714 15.8728 12.8728 15.5714 13.2143 15.5714H42.7857C43.5491 15.5714 43.4286 16.4554 43.4286 16.9576ZM46 16.2143C46 14.4464 44.5536 13 42.7857 13H13.2143C11.4464 13 10 14.4464 10 16.2143V38.0714C10 39.8393 11.4464 41.2857 13.2143 41.2857H42.7857C44.5536 41.2857 46 39.8393 46 38.0714V16.2143Z" fill="white"/>
</svg>
